<svg xmlns="http://www.w3.org/2000/svg" viewBox="0 0 512 512" role="img" aria-labelledby="title desc" shape-rendering="crispEdges">
  <title id="title">PostSnail icon</title>
  <desc id="desc">Pixel-art snail icon without the PostSnail wordmark.</desc>
  <rect x="76" y="314" width="286" height="28" fill="#080a2f"/>
  <rect x="96" y="286" width="286" height="56" fill="#d3c8bf"/>
  <rect x="382" y="244" width="46" height="98" fill="#d3c8bf"/>
  <rect x="428" y="268" width="28" height="28" fill="#d3c8bf"/>
  <rect x="456" y="236" width="18" height="18" fill="#080a2f"/>
  <rect x="422" y="218" width="18" height="68" fill="#080a2f"/>
  <rect x="84" y="278" width="48" height="36" fill="#fffdf7"/>
  <rect x="92" y="296" width="40" height="18" fill="#d3c8bf"/>
  <rect x="128" y="154" width="244" height="188" fill="#080a2f"/>
  <rect x="104" y="182" width="296" height="132" fill="#080a2f"/>
  <rect x="132" y="158" width="244" height="168" fill="#ef4056"/>
  <rect x="104" y="190" width="282" height="112" fill="#ef4056"/>
  <rect x="122" y="254" width="86" height="66" fill="#cf1e3d"/>
  <rect x="286" y="154" width="52" height="72" fill="#ff8f9a"/>
  <rect x="170" y="166" width="70" height="30" fill="#ff8f9a"/>
  <rect x="176" y="218" width="104" height="104" fill="#080a2f"/>
  <rect x="198" y="240" width="70" height="70" fill="#ef4056"/>
  <rect x="214" y="258" width="42" height="42" fill="#080a2f"/>
  <rect x="232" y="272" width="30" height="30" fill="#ef4056"/>
  <rect x="246" y="286" width="16" height="16" fill="#080a2f"/>
  <rect x="292" y="282" width="72" height="34" fill="#cf1e3d"/>
  <rect x="386" y="288" width="12" height="12" fill="#080a2f"/>
</svg>
